<?xml version="1.0" standalone="no"?><!DOCTYPE svg PUBLIC "-//W3C//DTD SVG 1.1//EN" "http://www.w3.org/Graphics/SVG/1.1/DTD/svg11.dtd"><svg t="1502377782859" class="icon" style="" viewBox="0 0 1024 1024" version="1.1" xmlns="http://www.w3.org/2000/svg" p-id="2386" xmlns:xlink="http://www.w3.org/1999/xlink" width="200" height="200"><defs><style type="text/css"></style></defs><path d="M873.6 150.4c-96-96-224-150.4-361.6-150.4S246.4 54.4 150.4 150.4 0 374.4 0 512s54.4 262.4 150.4 361.6S374.4 1024 512 1024s265.6-54.4 361.6-150.4S1024 649.6 1024 512s-54.4-262.4-150.4-361.6z m-83.2 406.4h-236.8v236.8c0 25.6-19.2 44.8-44.8 44.8-22.4 0-44.8-19.2-44.8-44.8v-236.8H233.6c-22.4 0-44.8-19.2-44.8-44.8 0-22.4 19.2-44.8 44.8-44.8h236.8V233.6c0-22.4 19.2-44.8 44.8-44.8 22.4 0 44.8 19.2 44.8 44.8v236.8h236.8c25.6 0 44.8 19.2 44.8 44.8-6.4 22.4-25.6 41.6-51.2 41.6z" p-id="2387" fill="#3792E5"></path></svg>