<?xml version="1.0" standalone="no"?><!DOCTYPE svg PUBLIC "-//W3C//DTD SVG 1.1//EN" "http://www.w3.org/Graphics/SVG/1.1/DTD/svg11.dtd"><svg t="1502420718092" class="icon" style="" viewBox="0 0 1024 1024" version="1.1" xmlns="http://www.w3.org/2000/svg" p-id="3521" xmlns:xlink="http://www.w3.org/1999/xlink" width="200" height="200"><defs><style type="text/css"></style></defs><path d="M512 0a512 512 0 0 0 0 1024c122.112 0 234.24-42.944 322.24-114.368l56.896-54.528A509.248 509.248 0 0 0 1024 512a512 512 0 0 0-512-512zM438.336 879.232a53.696 53.696 0 1 1-0.192-107.328 53.696 53.696 0 0 1 0.192 107.328z m232.896 0a53.632 53.632 0 1 1 0-107.2 53.696 53.696 0 0 1 0 107.2z m161.216-500.16L767.616 581.12c-5.184 19.072-23.552 35.264-42.624 30.144H402.496l13.44 53.632h291.136a35.84 35.84 0 1 1 0 71.488H402.496a25.28 25.28 0 0 1-11.584 0h-6.4a35.712 35.712 0 0 1-35.776-35.712L267.2 383.552a35.84 35.84 0 0 1-7.424-28.8l-16.64-65.024H205.44a35.776 35.776 0 1 1 0-71.424h53.76a26.88 26.88 0 0 1 11.52 0h6.4c19.776 0 35.84 16 35.84 35.712l17.92 71.488h451.456a27.52 27.52 0 0 1 14.4 0c19.776 0 35.776 16 35.776 35.712 0 1.408-0.192 2.688-0.384 4.032 1.152 4.864 1.472 9.6 0.32 13.824z" p-id="3522" fill="#3792E5"></path></svg>