<?xml version="1.0" standalone="no"?><!DOCTYPE svg PUBLIC "-//W3C//DTD SVG 1.1//EN" "http://www.w3.org/Graphics/SVG/1.1/DTD/svg11.dtd"><svg t="1502377866233" class="icon" style="" viewBox="0 0 1024 1024" version="1.1" xmlns="http://www.w3.org/2000/svg" p-id="3624" xmlns:xlink="http://www.w3.org/1999/xlink" width="200" height="200"><defs><style type="text/css"></style></defs><path d="M512 0C230.4 0 0 230.4 0 512s230.4 512 512 512 512-230.4 512-512S793.6 0 512 0zM512 928c-230.4 0-416-185.6-416-416S281.6 96 512 96s416 185.6 416 416S742.4 928 512 928z" p-id="3625" fill="#3792E5"></path><path d="M768 448 256 448C217.6 448 192 473.6 192 512s25.6 64 64 64l512 0c38.4 0 64-25.6 64-64S806.4 448 768 448z" p-id="3626" fill="#3792E5"></path></svg>